# xmcd
#
# Track frame offsets:
#	150
#	122160
#	189152
#
# Disc length: 2907 seconds
#
# Revision: 1
# Processed by: cddbd v1.5.2PL0 Copyright (c) Steve Scherf et al.
# Submitted via: audiograbber 1.83.01
#
DISCID=1e0b5903
DTITLE=Grateful Dead - 73-06-24 Portland Memorial Coliseum, Portland OR
DYEAR=1900
DGENRE=
TTITLE0=Dark Star
TTITLE1=Eyes Of The World
TTITLE2=China Doll
EXTD=
EXTT0=
EXTT1=
EXTT2=
PLAYORDER=
